HIERARCHY
ROOT Hips
{
	OFFSET 0.000000 0.000000 0.000000
	CHANNELS 6 Xposition Yposition Zposition Zrotation Yrotation Xrotation 
	JOINT LHipJoint
	{
		OFFSET 0.000000 0.000000 0.000000
		CHANNELS 3 Zrotation Yrotation Xrotation
		JOINT LeftUpLeg
		{
			OFFSET 1.363060 -1.794630 0.839290
			CHANNELS 3 Zrotation Yrotation Xrotation
			JOINT LeftLeg
			{
				OFFSET 2.448110 -6.726130 0.000000
				CHANNELS 3 Zrotation Yrotation Xrotation
				JOINT LeftFoot
				{
					OFFSET 2.562200 -7.039590 0.000000
					CHANNELS 3 Zrotation Yrotation Xrotation
					JOINT LeftToeBase
					{
						OFFSET 0.157640 -0.433110 2.322550
						CHANNELS 3 Zrotation Yrotation Xrotation
						End Site
						{
							OFFSET 0.000000 0.000000 0.000000
						}
					}
				}
			}
		}
	}
	JOINT RHipJoint
	{
		OFFSET 0.000000 0.000000 0.000000
		CHANNELS 3 Zrotation Yrotation Xrotation
		JOINT RightUpLeg
		{
			OFFSET -1.305520 -1.794630 0.839290
			CHANNELS 3 Zrotation Yrotation Xrotation
			JOINT RightLeg
			{
				OFFSET -2.542530 -6.985550 0.000000
				CHANNELS 3 Zrotation Yrotation Xrotation
				JOINT RightFoot
				{
					OFFSET -2.568260 -7.056230 0.000000
					CHANNELS 3 Zrotation Yrotation Xrotation
					JOINT RightToeBase
					{
						OFFSET -0.164730 -0.452590 2.363150
						CHANNELS 3 Zrotation Yrotation Xrotation
						End Site
						{
							OFFSET 0.000000 0.000000 0.000000
						}
					}
				}
			}
		}
	}
	JOINT LowerBack
	{
		OFFSET 0.000000 0.000000 0.000000
		CHANNELS 3 Zrotation Yrotation Xrotation
		JOINT Spine
		{
			OFFSET 0.028270 2.035590 -0.193380
			CHANNELS 3 Zrotation Yrotation Xrotation
			JOINT Spine1
			{
				OFFSET 0.056720 2.048850 -0.042750
				CHANNELS 3 Zrotation Yrotation Xrotation
				JOINT Neck
				{
					OFFSET 0.000000 0.000000 0.000000
					CHANNELS 3 Zrotation Yrotation Xrotation
					JOINT Neck1
					{
						OFFSET -0.054170 1.746240 0.172020
						CHANNELS 3 Zrotation Yrotation Xrotation
						JOINT Head
						{
							OFFSET 0.104070 1.761360 -0.123970
							CHANNELS 3 Zrotation Yrotation Xrotation
							End Site
							{
								OFFSET 0.000000 0.000000 0.000000
							}
						}
					}
				}
				JOINT LeftShoulder
				{
					OFFSET 0.000000 0.000000 0.000000
					CHANNELS 3 Zrotation Yrotation Xrotation
					JOINT LeftArm
					{
						OFFSET 3.362410 1.200890 -0.311210
						CHANNELS 3 Zrotation Yrotation Xrotation
						JOINT LeftForeArm
						{
							OFFSET 4.983000 -0.000000 -0.000000
							CHANNELS 3 Zrotation Yrotation Xrotation
							JOINT LeftHand
							{
								OFFSET 3.483560 -0.000000 -0.000000
								CHANNELS 3 Zrotation Yrotation Xrotation
								JOINT LeftFingerBase
								{
									OFFSET 0.000000 0.000000 0.000000
									CHANNELS 3 Zrotation Yrotation Xrotation
									JOINT LeftHandIndex1
									{
										OFFSET 0.715260 -0.000000 -0.000000
										CHANNELS 3 Zrotation Yrotation Xrotation
										End Site
										{
											OFFSET 0.000000 0.000000 0.000000
										}
									}
								}
								JOINT LThumb
								{
									OFFSET 0.000000 0.000000 0.000000
									CHANNELS 3 Zrotation Yrotation Xrotation
									End Site
									{
										OFFSET 0.000000 0.000000 0.000000
									}
								}
							}
						}
					}
				}
				JOINT RightShoulder
				{
					OFFSET 0.000000 0.000000 0.000000
					CHANNELS 3 Zrotation Yrotation Xrotation
					JOINT RightArm
					{
						OFFSET -3.136600 1.374050 -0.404650
						CHANNELS 3 Zrotation Yrotation Xrotation
						JOINT RightForeArm
						{
							OFFSET -5.241900 -0.000000 -0.000000
							CHANNELS 3 Zrotation Yrotation Xrotation
							JOINT RightHand
							{
								OFFSET -3.444170 -0.000000 -0.000000
								CHANNELS 3 Zrotation Yrotation Xrotation
								JOINT RightFingerBase
								{
									OFFSET 0.000000 0.000000 0.000000
									CHANNELS 3 Zrotation Yrotation Xrotation
									JOINT RightHandIndex1
									{
										OFFSET -0.622530 -0.000000 -0.000000
										CHANNELS 3 Zrotation Yrotation Xrotation
										End Site
										{
											OFFSET 0.000000 0.000000 0.000000
										}
									}
								}
								JOINT RThumb
								{
									OFFSET 0.000000 0.000000 0.000000
									CHANNELS 3 Zrotation Yrotation Xrotation
									End Site
									{
										OFFSET 0.000000 0.000000 0.000000
									}
								}
							}
						}
					}
				}
			}
		}
	}
}
MOTION
Frames: 10
Frame Time: 0.008333
-41.289877 17.167847 3.020838 5.468581 67.439803 9.140332 -1.056536 1.106452 1.674922 -9.651148 21.314881 -12.658529 1.762826 9.812531 29.927673 -1.050239 6.081575 -3.710626 1.972000 -8.807500 -25.195000 -3.140364 0.576074 -3.382623 4.076515 -6.358865 -31.999977 -7.179060 -17.598184 50.805421 -0.445040 -1.066421 3.199344 -0.039500 1.282300 -3.525900 -11.333171 -0.971723 13.557677 0.053437 -2.280468 -2.584274 2.657264 -1.281067 0.661604 -14.960556 -15.800126 2.331041 15.823877 -30.851398 -4.468321 18.151300 -9.693200 -1.772700 -2.104798 0.077303 2.754160 -66.184334 2.696485 75.817276 140.395974 -45.580526 -100.322304 -0.865473 -0.539476 -22.232079 23.754751 19.317961 8.689200 -7.125000 0.000000 0.000000 -3.580500 51.092100 -0.538000 -3.639730 -0.603901 2.760357 52.829813 -10.201009 71.495655 -140.674073 44.994926 -103.683679 -0.983587 -0.181227 -32.088106 -71.470313 44.160653 -63.758600 7.125000 0.000000 0.000000 -13.106900 40.922800 -18.687300 
-41.212610 17.164770 3.098106 5.524960 66.988007 8.859873 -1.093893 1.282220 1.799382 -9.456539 21.097330 -11.400401 1.623911 9.537725 29.199956 -1.235394 6.560522 -4.062563 1.856500 -8.560600 -24.430100 -3.130555 0.550670 -3.428033 3.259722 -5.857163 -31.481434 -6.814621 -17.313792 49.477568 -0.173526 -2.014411 4.331472 -0.046100 1.385500 -3.810300 -11.506312 -1.382149 13.309996 0.171429 -2.708486 -2.575088 3.526004 -1.581004 1.171764 -15.465878 -15.264471 1.428850 14.912008 -29.401837 -3.511999 17.560900 -9.261800 -1.586100 -2.123769 -0.020674 2.759371 -66.503051 -1.286457 75.660424 141.007539 -44.692029 -100.933832 -0.843267 -0.539564 -22.808975 23.640888 19.235728 8.603500 -7.125000 0.000000 0.000000 -3.693200 50.983800 -0.545100 -3.380795 -0.638821 2.665218 49.707194 -8.047444 68.927901 -141.660630 44.137290 -104.885044 -1.255146 -0.059808 -32.470448 -72.974125 44.851218 -65.675500 7.125000 0.000000 0.000000 -13.271400 42.359600 -18.941500 
-41.097507 17.156336 3.175145 5.003164 66.033120 7.915935 -1.098516 1.490768 1.927772 -9.205463 21.157574 -9.898225 1.539773 9.260591 28.580513 -1.670472 7.725270 -5.157664 2.058600 -8.987200 -25.755200 -3.072570 0.515253 -3.437849 2.532486 -5.089684 -30.869235 -6.425487 -17.034032 48.108688 0.087757 -2.942098 5.263620 -0.106500 2.104500 -5.794600 -11.164897 -1.728893 12.947198 0.247392 -3.065292 -2.589708 3.766974 -1.791821 1.509262 -15.724211 -14.606284 0.616583 13.943127 -27.619115 -2.439326 16.977600 -8.760400 -1.404800 -2.037535 -0.165273 2.753670 -68.479566 -6.353907 75.295740 140.604578 -44.349476 -100.890071 -0.858389 -0.499011 -21.977255 24.300681 19.967531 9.160600 -7.125000 0.000000 0.000000 -3.205700 51.839800 -0.540400 -3.228973 -0.555935 2.568589 46.782758 -5.887904 66.194233 -142.413039 43.294891 -105.866557 -1.509467 0.013391 -32.839090 -73.184990 44.882408 -65.692300 7.125000 0.000000 0.000000 -13.347600 42.330100 -19.052200 
-41.031522 17.146877 3.261530 5.549196 65.709700 8.202842 -1.148880 1.628544 2.081729 -9.137624 21.012674 -8.900935 1.404613 8.983008 27.845608 -2.019930 8.645822 -5.677904 2.436800 -9.722100 -28.081500 -3.103127 0.466704 -3.455999 1.617672 -4.604916 -30.516125 -6.094109 -16.715173 46.721435 0.470873 -4.241417 6.155313 -0.179100 2.726200 -7.517200 -11.619548 -2.242562 12.925511 0.391135 -3.740020 -2.670209 4.828285 -2.197857 1.422361 -16.316281 -13.856587 -0.005622 13.010006 -25.699678 -1.461296 16.429800 -8.169400 -1.351500 -1.990604 -0.432113 2.707284 -68.356836 -10.695238 74.806742 139.407158 -44.510714 -100.123298 -0.823097 -0.401988 -21.021751 25.605851 18.800847 9.108500 -7.125000 0.000000 0.000000 -1.678200 50.740000 -0.237400 -3.048685 -0.338007 2.456035 43.986394 -3.302844 62.797624 -142.523799 42.897628 -106.382088 -1.701169 0.061538 -33.414583 -72.727277 44.833136 -64.860700 7.125000 0.000000 0.000000 -13.267400 41.713700 -18.930500 
-40.960066 17.130467 3.349054 5.942993 65.564390 8.427454 -1.107658 1.656689 2.114828 -9.035764 20.723197 -7.666652 1.267793 8.676182 27.114401 -2.135500 8.956840 -6.044421 2.282800 -9.431800 -27.155500 -3.089626 0.352791 -3.485764 0.680247 -4.060735 -30.142952 -5.746283 -16.445172 45.300729 0.783883 -5.355450 7.130457 -0.265100 3.312600 -9.150200 -10.395286 -2.920370 12.614748 0.221385 -4.727175 -2.714184 1.865312 -2.494697 1.521901 -14.203693 -13.215843 -0.810370 12.223253 -23.665095 -0.457277 15.641700 -7.708500 -1.147300 -2.409090 -0.593801 2.550293 -65.526893 -14.538272 73.009628 138.626458 -44.984850 -99.981560 -0.624040 -0.489426 -20.247330 25.764728 18.272126 8.961400 -7.125000 0.000000 0.000000 -1.610400 50.392200 -0.214100 -3.151928 0.113667 2.470135 44.634274 -0.246535 59.358855 -141.638171 42.699159 -106.156440 -1.624576 0.044066 -33.651823 -72.484459 45.105025 -64.727900 7.125000 0.000000 0.000000 -13.006600 41.758900 -18.551200 
-40.892258 17.117133 3.441137 6.917051 65.414137 9.240190 -1.132483 1.726591 2.235259 -9.151121 20.277548 -6.561104 1.117534 8.414680 26.407451 -2.225398 9.160005 -5.743797 1.462900 -7.643900 -21.637700 -3.154538 0.276808 -3.526340 -0.391348 -3.612020 -29.821107 -5.435172 -16.109831 43.882407 1.037061 -6.303735 8.118367 -0.425900 4.188500 -11.607600 -10.720384 -3.493064 12.338274 0.298859 -5.493439 -2.786076 2.121466 -2.897644 1.779675 -13.962988 -12.461528 -2.035868 11.221252 -21.678015 0.735144 14.657900 -7.187900 -0.732900 -2.128238 -0.838625 2.457496 -67.874495 -21.101003 72.268290 137.339830 -44.998489 -99.431571 -0.692224 -0.529920 -20.055253 26.613528 20.591847 10.414900 -7.125000 0.000000 0.000000 -1.172400 53.070200 -0.232800 -3.210602 0.326486 2.298143 43.499292 2.914072 54.934416 -140.419976 43.211586 -105.732703 -1.615517 0.052029 -34.620077 -71.558695 45.811725 -63.805200 7.125000 0.000000 0.000000 -12.259400 41.463400 -17.462500 
-40.829008 17.101178 3.538917 7.926151 65.292962 10.019082 -1.145837 1.802379 2.348699 -9.243269 20.036691 -5.630054 0.990313 8.175246 25.791688 -2.004821 8.553940 -5.395731 0.888700 -6.008900 -16.810300 -3.229781 0.180560 -3.547764 -1.449078 -3.223082 -29.462239 -5.151237 -15.757988 42.459572 1.350883 -7.433371 9.070959 -0.661200 5.200500 -14.481300 -11.200065 -4.112789 12.150169 0.391468 -6.342769 -2.874527 2.532957 -3.361683 2.080509 -13.672304 -11.554311 -3.602389 10.018340 -19.353329 2.216658 13.439700 -6.593500 -0.029400 -1.961593 -1.133348 2.283020 -67.771427 -26.356354 70.776618 135.059667 -45.703081 -97.974687 -0.673648 -0.518583 -20.026932 27.740459 19.949731 10.583800 -7.125000 0.000000 0.000000 0.117400 52.581500 0.021900 -3.244106 0.583604 2.061512 42.355947 6.739726 50.496371 -138.652633 44.093601 -104.858166 -1.528333 0.033735 -35.871738 -70.219612 46.201480 -62.324000 7.125000 0.000000 0.000000 -11.612100 40.679800 -16.514400 
-40.764732 17.074852 3.639775 7.458656 65.181865 9.311108 -1.075147 1.968788 2.379664 -8.643486 20.130570 -4.715630 0.956983 7.959716 25.374627 -1.470081 7.129544 -5.262462 0.708700 -5.380500 -14.997200 -3.178322 0.120310 -3.553473 -1.957015 -2.684632 -28.940987 -4.846972 -15.443264 41.082344 1.774540 -8.853801 9.954810 -0.904000 6.059200 -16.956200 -10.784706 -4.430670 12.035127 0.400771 -6.707205 -2.852007 1.863793 -3.546850 2.969389 -12.212179 -10.990914 -5.737295 9.097351 -17.744128 3.323559 12.039400 -6.193500 0.731500 -1.767885 -1.323581 2.123813 -66.810123 -32.663126 69.613162 132.653487 -46.425093 -96.449647 -0.636240 -0.571659 -20.099642 29.223600 20.391846 11.485900 -7.125000 0.000000 0.000000 1.555800 53.430300 0.322600 -3.249244 0.786909 1.813673 41.979506 10.714712 44.859060 -136.187432 45.424363 -103.561406 -1.322442 -0.013495 -36.808976 -68.925325 46.155206 -60.863700 7.125000 0.000000 0.000000 -11.255200 39.740000 -15.982000 
-40.702166 17.050236 3.743141 7.267188 65.080688 8.872470 -1.024667 2.138637 2.436915 -8.099057 20.317809 -4.015290 0.979416 7.836702 25.198328 -1.255653 6.538955 -5.106982 0.721700 -5.428500 -15.134800 -3.137943 0.063695 -3.534101 -2.533185 -2.027502 -28.386664 -4.559695 -15.104077 39.699806 2.138689 -10.152696 11.056707 -1.058500 6.541400 -18.363500 -10.929198 -4.906687 12.001384 0.507858 -7.297670 -2.874817 2.329269 -3.912734 3.427902 -11.870511 -10.185699 -7.067890 8.388211 -16.011246 4.179494 11.247100 -5.618000 1.139600 -1.540775 -1.607812 1.990193 -65.072090 -37.638804 67.298652 128.534766 -47.797450 -93.397256 -0.618350 -0.601208 -20.455620 29.790809 19.117947 11.084400 -7.125000 0.000000 0.000000 2.357200 52.169400 0.416200 -3.313378 1.045622 1.572692 40.928583 15.061400 39.622189 -133.049899 47.229878 -101.628691 -1.105887 -0.038477 -37.840326 -66.897096 46.093851 -58.514600 7.125000 0.000000 0.000000 -10.656600 38.239200 -15.084700 
-40.643931 17.025050 3.849811 7.747436 65.097633 9.144079 -0.975776 2.227319 2.476614 -7.830113 20.604182 -3.665606 1.045554 7.826662 25.307553 -1.230197 6.437206 -4.784949 0.865000 -5.930500 -16.582800 -3.147411 -0.037672 -3.501438 -3.348160 -1.455151 -27.883909 -4.305634 -14.750849 38.317855 2.354368 -11.149602 12.512286 -1.035700 6.472800 -18.162500 -11.065739 -5.545919 12.024127 0.570287 -8.203986 -2.961844 2.116643 -4.351238 3.422999 -10.992922 -9.117657 -7.967591 7.703160 -13.924230 4.934882 10.402600 -4.890500 1.328300 -1.218027 -1.885067 1.883935 -64.913868 -42.821372 64.864738 124.619569 -48.770672 -90.677539 -0.609979 -0.711254 -21.561771 29.465542 19.350165 11.134600 -7.125000 0.000000 0.000000 2.006500 52.479000 0.369500 -3.519433 1.439771 1.299922 40.807410 19.652282 35.105454 -128.948968 49.220705 -98.868829 -0.815935 -0.045849 -38.721417 -63.100934 46.447179 -54.383100 7.125000 0.000000 0.000000 -9.109000 35.949300 -12.802100 
